<?xml version="1.0" encoding="utf-8"?>
<!-- Generator: Adobe Illustrator 16.0.0, SVG Export Plug-In . SVG Version: 6.00 Build 0)  -->
<!DOCTYPE svg PUBLIC "-//W3C//DTD SVG 1.1//EN" "http://www.w3.org/Graphics/SVG/1.1/DTD/svg11.dtd">
<svg version="1.1" id="Layer_1" xmlns="http://www.w3.org/2000/svg" xmlns:xlink="http://www.w3.org/1999/xlink" x="0px" y="0px"
	 width="100.523px" height="124.623px" viewBox="0 0 100.523 124.623" enable-background="new 0 0 100.523 124.623"
	 xml:space="preserve">
<g>
	<g>
		<path fill-rule="evenodd" clip-rule="evenodd" fill="#ED1F33" d="M34.805,124.575c-8.211-2.521-14.736-6.588-20.381-11.884
			C7.526,106.219,2.643,98.163,0.922,88.949C-1.628,75.287,1.026,62.5,9.967,51.317c4.751-5.941,11.098-10.203,16.008-15.938
			c4.48-5.234,8.812-10.572,10.688-17.399c1.588-5.774,1.731-11.41-1.877-16.604c-0.254-0.364-0.803-0.716-0.387-1.137
			c0.242-0.246,0.885-0.297,1.268-0.178c8.443,2.619,16.709,5.706,23.41,11.701c7.268,6.501,9.322,15.664,4.798,25.588
			c11.344-9.524,23.58-9.146,36.649-3.803c-2.86,2.01-5.593,3.557-7.874,5.604c-5.952,5.35-7.325,10.023-4.617,18.249
			c2.01,6.108,5.195,11.665,7.918,17.44c5.202,11.039,5.669,22.185-1.479,32.389c-4.766,6.8-11.771,11.484-19.333,15.07
			c-1.759,0.833-3.629,1.431-5.927,2.323c1.28-2.175,2.411-3.958,3.409-5.811c5.42-10.061,4.221-19.727-1.915-29.008
			c-3.031-4.584-6.964-8.355-11.217-11.806c-1.602-1.301-2.984-1.052-4.43,0.311c-3.098,2.92-5.878,6.064-7.704,9.961
			c-0.297,0.63-0.457,1.517-1.264,1.589c-0.958,0.086-0.838-0.997-1.187-1.533c-3.609-5.553-5.585-11.725-6.74-18.195
			c-0.314-1.758,0.641-3.355,0.614-5.441c-7.681,5.676-13.39,12.34-15.13,21.838c-1.633,8.908,0.585,17.213,3.936,25.312
			C29.377,116.171,31.814,120.194,34.805,124.575z"/>
	</g>
</g>
</svg>
